<?xml version="1.0" encoding="UTF-8"?>
<svg id="_레이어_1" data-name="레이어 1" xmlns="http://www.w3.org/2000/svg" xmlns:xlink="http://www.w3.org/1999/xlink" viewBox="0 0 253.01 396.49">
  <defs>
    <style>
      .cls-1, .cls-2, .cls-3 {
        stroke-width: 0px;
      }

      .cls-2 {
        fill: #fff;
      }

      .cls-2, .cls-3 {
        fill-rule: evenodd;
      }

      .cls-3 {
        fill: #d9d9d9;
      }

      .cls-4 {
        mask: url(#mask);
      }

      .cls-5 {
        fill: #5ded6b;
        stroke: #000;
        stroke-width: 4px;
      }
    </style>
    <mask id="mask" x="0" y="0" width="253.01" height="396.49" maskUnits="userSpaceOnUse">
      <g id="path-5-inside-2_5_50" data-name="path-5-inside-2 5 50">
        <path class="cls-2" d="M245.73,40.76c-6.77,11.72-21.75,15.73-33.47,8.97-11.72-6.76-15.74-21.75-8.97-33.47,6.77-11.72,21.75-15.73,33.47-8.97,11.72,6.77,15.73,21.75,8.97,33.47ZM187.76,92.16c-11.72-6.76-15.74-21.75-8.97-33.47,6.77-11.72,21.75-15.73,33.47-8.97,11.72,6.77,15.73,21.75,8.97,33.47-6.77,11.72-21.75,15.73-33.47,8.97ZM163.26,134.59c11.72,6.77,26.7,2.75,33.47-8.97,6.76-11.72,2.75-26.7-8.97-33.47-11.72-6.76-26.7-2.75-33.47,8.97-6.77,11.72-2.75,26.7,8.97,33.47ZM138.76,177.03c-11.72-6.77-15.74-21.75-8.97-33.47,6.77-11.72,21.75-15.73,33.47-8.97,11.72,6.77,15.73,21.75,8.97,33.47-6.77,11.72-21.75,15.73-33.47,8.97ZM114.26,219.46c11.72,6.77,26.7,2.75,33.47-8.97,6.76-11.72,2.75-26.7-8.97-33.47-11.72-6.77-26.7-2.75-33.47,8.97-6.77,11.72-2.75,26.7,8.97,33.47ZM89.76,261.9c-11.72-6.76-15.73-21.75-8.97-33.47,6.77-11.72,21.75-15.73,33.47-8.97,11.72,6.77,15.73,21.75,8.97,33.47-6.77,11.72-21.75,15.73-33.47,8.97ZM65.26,304.33c11.72,6.77,26.7,2.75,33.47-8.97,6.76-11.72,2.75-26.7-8.97-33.47-11.72-6.76-26.7-2.75-33.47,8.97-6.77,11.72-2.75,26.7,8.97,33.47ZM40.76,346.77c-11.72-6.77-15.73-21.75-8.97-33.47,6.77-11.72,21.75-15.73,33.47-8.97,11.72,6.77,15.73,21.75,8.97,33.47-6.77,11.72-21.75,15.73-33.47,8.97ZM40.76,346.77c11.72,6.77,15.73,21.75,8.97,33.47-6.77,11.72-21.75,15.73-33.47,8.97-11.72-6.77-15.73-21.75-8.97-33.47,6.77-11.72,21.75-15.73,33.47-8.97Z"/>
      </g>
    </mask>
  </defs>
  <rect class="cls-5" x="99.58" y="42" width="34" height="328"/>
  <path class="cls-3" d="M245.73,40.76c-6.77,11.72-21.75,15.73-33.47,8.97-11.72-6.76-15.74-21.75-8.97-33.47,6.77-11.72,21.75-15.73,33.47-8.97,11.72,6.77,15.73,21.75,8.97,33.47ZM187.76,92.16c-11.72-6.76-15.74-21.75-8.97-33.47,6.77-11.72,21.75-15.73,33.47-8.97,11.72,6.77,15.73,21.75,8.97,33.47-6.77,11.72-21.75,15.73-33.47,8.97ZM163.26,134.59c11.72,6.77,26.7,2.75,33.47-8.97,6.76-11.72,2.75-26.7-8.97-33.47-11.72-6.76-26.7-2.75-33.47,8.97-6.77,11.72-2.75,26.7,8.97,33.47ZM138.76,177.03c-11.72-6.77-15.74-21.75-8.97-33.47,6.77-11.72,21.75-15.73,33.47-8.97,11.72,6.77,15.73,21.75,8.97,33.47-6.77,11.72-21.75,15.73-33.47,8.97ZM114.26,219.46c11.72,6.77,26.7,2.75,33.47-8.97,6.76-11.72,2.75-26.7-8.97-33.47-11.72-6.77-26.7-2.75-33.47,8.97-6.77,11.72-2.75,26.7,8.97,33.47ZM89.76,261.9c-11.72-6.76-15.73-21.75-8.97-33.47,6.77-11.72,21.75-15.73,33.47-8.97,11.72,6.77,15.73,21.75,8.97,33.47-6.77,11.72-21.75,15.73-33.47,8.97ZM65.26,304.33c11.72,6.77,26.7,2.75,33.47-8.97,6.76-11.72,2.75-26.7-8.97-33.47-11.72-6.76-26.7-2.75-33.47,8.97-6.77,11.72-2.75,26.7,8.97,33.47ZM40.76,346.77c-11.72-6.77-15.73-21.75-8.97-33.47,6.77-11.72,21.75-15.73,33.47-8.97,11.72,6.77,15.73,21.75,8.97,33.47-6.77,11.72-21.75,15.73-33.47,8.97ZM40.76,346.77c11.72,6.77,15.73,21.75,8.97,33.47-6.77,11.72-21.75,15.73-33.47,8.97-11.72-6.77-15.73-21.75-8.97-33.47,6.77-11.72,21.75-15.73,33.47-8.97Z"/>
  <g class="cls-4">
    <path class="cls-1" d="M210.26,53.19c13.63,7.87,31.06,3.2,38.93-10.43l-6.93-4c-5.66,9.81-18.2,13.16-28,7.5l-4,6.93ZM199.83,14.26c-7.87,13.63-3.2,31.06,10.43,38.93l4-6.93c-9.81-5.66-13.17-18.2-7.51-28l-6.92-4ZM238.76,3.82c-13.63-7.87-31.06-3.2-38.93,10.43l6.92,4c5.67-9.8,18.2-13.16,28.01-7.5l4-6.93ZM249.19,42.76c7.87-13.63,3.2-31.06-10.43-38.93l-4,6.93c9.8,5.66,13.16,18.2,7.5,28l6.93,4ZM175.33,56.69c-7.87,13.63-3.2,31.06,10.43,38.93l4-6.93c-9.81-5.66-13.17-18.2-7.51-28l-6.92-4ZM214.26,46.26c-13.63-7.87-31.06-3.2-38.93,10.43l6.92,4c5.67-9.81,18.2-13.17,28.01-7.5l4-6.93ZM224.69,85.19c7.87-13.63,3.2-31.06-10.43-38.93l-4,6.93c9.8,5.66,13.16,18.2,7.5,28l6.93,4ZM185.76,95.62c13.63,7.87,31.06,3.2,38.93-10.43l-6.93-4c-5.66,9.8-18.2,13.16-28,7.5l-4,6.93ZM193.26,123.63c-5.66,9.8-18.2,13.16-28,7.5l-4,6.93c13.63,7.87,31.06,3.2,38.93-10.43l-6.93-4ZM185.76,95.62c9.8,5.66,13.16,18.2,7.5,28l6.93,4c7.87-13.63,3.2-31.06-10.43-38.93l-4,6.93ZM157.75,103.13c5.67-9.81,18.2-13.16,28.01-7.5l4-6.93c-13.63-7.87-31.06-3.2-38.93,10.43l6.92,4ZM165.26,131.13c-9.81-5.66-13.17-18.2-7.51-28l-6.92-4c-7.87,13.63-3.2,31.06,10.43,38.93l4-6.93ZM126.33,141.56c-7.87,13.63-3.2,31.06,10.43,38.93l4-6.93c-9.81-5.66-13.17-18.2-7.51-28l-6.92-4ZM165.26,131.13c-13.63-7.87-31.06-3.2-38.93,10.43l6.92,4c5.67-9.81,18.2-13.16,28.01-7.5l4-6.93ZM175.69,170.06c7.87-13.63,3.2-31.06-10.43-38.93l-4,6.93c9.8,5.66,13.16,18.2,7.5,28l6.93,4ZM136.76,180.49c13.63,7.87,31.06,3.2,38.93-10.43l-6.93-4c-5.66,9.8-18.2,13.16-28,7.5l-4,6.93ZM144.26,208.5c-5.66,9.8-18.2,13.16-28,7.5l-4,6.93c13.63,7.87,31.06,3.2,38.93-10.43l-6.93-4ZM136.76,180.49c9.8,5.66,13.16,18.2,7.5,28l6.93,4c7.87-13.63,3.2-31.06-10.43-38.93l-4,6.93ZM108.75,188c5.67-9.81,18.2-13.17,28.01-7.5l4-6.93c-13.63-7.87-31.06-3.2-38.93,10.43l6.92,4ZM116.26,216c-9.81-5.66-13.17-18.2-7.51-28l-6.92-4c-7.87,13.63-3.2,31.06,10.43,38.93l4-6.93ZM77.32,226.43c-7.87,13.63-3.2,31.06,10.43,38.93l4-6.93c-9.8-5.66-13.17-18.2-7.5-28l-6.93-4ZM116.26,216c-13.63-7.87-31.06-3.2-38.93,10.43l6.93,4c5.66-9.81,18.2-13.17,28.01-7.5l4-6.93ZM126.69,254.93c7.87-13.63,3.2-31.06-10.43-38.93l-4,6.93c9.8,5.66,13.16,18.2,7.5,28l6.93,4ZM87.76,265.36c13.63,7.87,31.06,3.2,38.93-10.43l-6.93-4c-5.66,9.8-18.2,13.16-28,7.5l-4,6.93ZM95.26,293.37c-5.66,9.8-18.2,13.17-28,7.5l-4,6.93c13.63,7.87,31.06,3.2,38.93-10.43l-6.93-4ZM87.76,265.36c9.8,5.66,13.16,18.2,7.5,28l6.93,4c7.87-13.63,3.2-31.06-10.43-38.93l-4,6.93ZM59.75,272.87c5.66-9.8,18.2-13.16,28-7.5l4-6.93c-13.63-7.87-31.06-3.2-38.93,10.43l6.93,4ZM67.26,300.87c-9.8-5.66-13.17-18.2-7.5-28l-6.93-4c-7.87,13.63-3.2,31.06,10.43,38.93l4-6.93ZM42.76,343.31c-9.8-5.66-13.17-18.2-7.5-28l-6.93-4c-7.87,13.63-3.2,31.06,10.43,38.93l4-6.93ZM35.25,315.3c5.66-9.8,18.2-13.16,28-7.5l4-6.93c-13.63-7.87-31.06-3.2-38.93,10.43l6.93,4ZM63.26,307.8c9.8,5.66,13.16,18.2,7.5,28l6.93,4c7.87-13.63,3.2-31.06-10.43-38.93l-4,6.93ZM70.76,335.8c-5.66,9.8-18.2,13.17-28,7.5l-4,6.93c13.63,7.87,31.06,3.2,38.93-10.43l-6.93-4ZM38.76,350.23c9.8,5.66,13.16,18.2,7.5,28l6.93,4c7.87-13.63,3.2-31.06-10.43-38.93l-4,6.93ZM46.26,378.24c-5.66,9.8-18.2,13.16-28,7.5l-4,6.93c13.63,7.87,31.06,3.2,38.93-10.43l-6.93-4ZM18.26,385.74c-9.8-5.66-13.17-18.2-7.5-28l-6.93-4c-7.87,13.63-3.2,31.06,10.43,38.93l4-6.93ZM10.75,357.74c5.66-9.8,18.2-13.17,28-7.5l4-6.93c-13.63-7.87-31.06-3.2-38.93,10.43l6.93,4Z"/>
  </g>
</svg>