<?xml version="1.0" encoding="UTF-8"?>
<svg id="_레이어_1" data-name="레이어 1" xmlns="http://www.w3.org/2000/svg" viewBox="0 0 812.28 754.83">
  <defs>
    <style>
      .cls-1 {
        fill: #bdb39a;
        stroke-width: 0px;
      }
    </style>
  </defs>
  <path class="cls-1" d="M808.9,429.51c-2.17-4.76-2.27-9.24-.47-14.31,1.62-4.57,3.35-9.61,1.84-14.58-2.92-9.58-6.8-18.78-8.46-28.86-1.69-10.22-8.76-17.79-15.69-25.42-6.79-7.47-14.57-11.34-24.36-13.04-29.9-5.19-60.24-7.17-90.06-13.19-16.86-3.41-34.32-3.95-51.54-5.4-18.22-1.53-36.44-3.13-54.73-3.78-10.59-.38-21.16-1.16-32.76-1.82,5.23-6.05,9.8-11.28,14.3-16.57,3.32-3.91,6.06-8.47,9.92-11.73,16.98-14.34,34.42-28.14,51.35-42.55,4.02-3.42,6.46-2.32,8.73.92,7.56,10.8,18.56,15.52,30.85,18.34,10.68,2.45,20.51,1.49,28.63-6.55,6.41-6.35,13.16-12.16,18.3-19.98,5.48-8.33,9.77-16.86,12.19-26.34,2.6-10.18-.92-18.26-9.83-24.22-1.65-1.1-2.29-2.76-2.9-4.5-2.79-8.1-5.02-16.48-12.18-22.23-.77-.62-1.04-2.02-1.26-3.12-1.05-5.21-4.38-8.48-9.01-10.54-12.77-5.68-25.26-3.38-36.99,2.6-22.29,11.38-43.45,24.76-64.67,38.01-18.94,11.82-37.03,24.84-55.16,37.8-12.12,8.66-23.78,17.98-35.68,26.96-8.32,6.28-16.1,13.29-24.3,19.63-6.72,5.19-13.2,10.66-19.44,16.3-8.21,7.43-10.17,7.5-15.25-2.74-.15-.3-.29-.6-.43-.9-3.55-7.64-6.52-15.62-10.77-22.85-6.09-10.38-11.83-20.92-18.94-30.8-7.43-10.33-17.37-16.02-30.45-12.92-1.6.38-2.28-.18-3.43-.98-4.55-3.15-9.07-3.59-14.38-.93-8.21,4.12-12.98,11.79-19.71,17.39-2.97,2.48-4.94,5.45-5.27,9.27-.22,2.54-1.47,3.92-3.72,4.67-6.7,2.23-12.39,6.19-18.15,10.17-10.44,7.21-13.68,15.95-8.82,27.42,4.02,9.46,7.04,19.98,18.95,23.2,1.31.36,2.38,1.76,3.47,2.78,12.38,11.61,24.74,23.22,37.09,34.86,4.54,4.28,4.55,4.36-.9,7.39-16.49,9.17-33.32,17.78-49.42,27.58-16.98,10.34-34.05,20.54-50.78,31.31-22.9,14.76-45.31,30.2-67.6,45.82-17.74,12.43-34.98,25.6-51.85,39.22-7.87,6.36-16.29,12.08-22.68,20.14-8.15,10.28-11.19,21.01-5.42,33.73,2.48,5.47,3.91,11.74,3.54,17.91-.28,4.66,1.39,8.24,3.56,12.09,6.32,11.23,15.95,19.95,22.85,30.72,1.42,2.22,3.43,4.22,6.17,4.82,9.34,2.05,18.86,1.54,26.73-3.62,11.76-7.71,22.14-17.33,31.11-28.24,2.77-3.36,4.25-7.92,2.07-12.17-2.2-4.31-3.88-8.78-5.71-13.22-2.82-6.84-7.64-12.35-12.23-18.02-.8-.98-3.78-2.26-.73-4.18,8.55-5.39,16.98-10.97,25.67-16.12,18.54-10.99,37.22-21.73,55.83-32.6,14-8.19,27.44-17.32,43.15-22.38,11.35-3.66,22.67-7.34,30.41-18.1,3.52-4.9,10.39-7.48,15.9-10.83,4.41-2.68,9.07-4.93,14.13-7.64-3.26,18.99-6.53,37.07-9.45,55.21-4.18,25.9-7.71,51.9-10.55,77.98-2.6,23.93-5.3,47.85-7.69,71.8-.77,7.7-1.98,15.44.59,23.2,1.64,4.96,2.59,10.24-2.77,14.1-.76.55-1.56,1.5-1.72,2.38-1.96,11.15-9.96,21.43-4.91,33.64.32.77-.35,1.92-.44,2.9-.95,9.65.6,18.69,7.75,25.79,7.94,7.89,16.01,15.73,26.61,20.17,7.76,3.25,15.3,6.39,24.3,4.65,8.7-1.68,16.26-5.38,23.72-9.7,8.78-5.08,16.54-10.75,21.05-20.67,4.88-10.75,5.14-20.91.12-31.23-1.39-2.86-2.01-5.37-1.58-8.46,1.48-10.72-.64-20.47-6.4-29.93-5.56-9.14-7.93-19.5-6.98-30.46,1.03-11.93,3.17-23.65,5.27-35.42,2.83-15.83,4.92-31.79,7.65-47.63,4.42-25.66,9.24-51.26,13.59-76.93,1.92-11.34,4.62-22.39,8.79-33.11,1.08-2.77,2.54-4.7,5.44-5.96,5.17-2.25,10.2-5.14,14.29-8.95,10.68-9.95,22.04-17.91,37.58-17.1,2.62.14,5.27-.65,7.92-.88,14.57-1.26,29-4.38,43.63-4.37,15.45,0,30.91,1.02,46.36,1.78,35.02,1.72,70.04,3.54,105.05,5.36,3.35.17,6.69.62,10.77,1.01-3.79,4.22-7.39,7.27-10.07,11.32-4,6.05-5.52,19.11-1.87,25.51,2.29,4.03,6.73,7.16,8.07,11.14,3.19,9.45,10.16,15.44,16.92,21.69,6.47,5.99,14,10.1,23,11.49,8.79,1.35,16.71-1.4,24.83-3.79,13.24-3.89,23.76-11.45,31.75-22.65,1.21-1.69,2.1-3.45,2.07-5.49-.12-7.29-.27-14.61-3.37-21.41Z"/>
</svg>