<?xml version="1.0" encoding="UTF-8"?>
<svg id="_레이어_1" data-name="레이어 1" xmlns="http://www.w3.org/2000/svg" viewBox="0 0 351.19 360">
  <defs>
    <style>
      .cls-1 {
        stroke-width: 0px;
      }
    </style>
  </defs>
  <path class="cls-1" d="M157.15,360c-8.74-1.68-17.64-2.74-26.18-5.14C62.93,335.76,19.64,291.98,1.16,223.74c-.25-.94-.31-1.93-.55-3.49,9.16,0,18.08-.13,26.99.17,1.02.03,2.42,2.3,2.87,3.77,11.23,36.79,33,65.62,65.75,85.73,83.63,51.36,192.49,9.37,221.04-85.16,1.07-3.55,2.43-4.74,6.07-4.62,7.94.27,15.89.08,24.28.08-2.63,13.4-6.78,25.77-12.56,37.49-27.06,54.93-70.74,88.25-130.85,99.99-4.69.91-9.43,1.53-14.14,2.29h-32.91Z"/>
  <path class="cls-1" d="M346.98,143.42h-27.13c-6.28-13.28-11.1-26.69-18.47-38.51-26.57-42.61-65.2-66.95-115.39-71.13C115.67,27.92,52.33,71.23,31.35,138.68c-1.18,3.79-2.68,5.25-6.8,5.04-7.78-.4-15.59-.11-23.44-.11C14.12,75.31,78.58,8.24,166.76,4.98c98.58-3.64,166.95,69.2,180.23,138.44Z"/>
</svg>