<?xml version="1.0" encoding="utf-8"?>
<!-- Generator: Adobe Illustrator 28.1.0, SVG Export Plug-In . SVG Version: 6.00 Build 0)  -->
<svg version="1.1" id="레이어_2" xmlns="http://www.w3.org/2000/svg" xmlns:xlink="http://www.w3.org/1999/xlink" x="0px"
	 y="0px" viewBox="0 0 3000 720" style="enable-background:new 0 0 3000 720;" xml:space="preserve">
<g id="레이어_2">
	<g>
		<path d="M1507.5,604.6c-15.3-24.6-36.9-40.6-61.5-40.6c-20.4,0-38.8,11-53.2,28.8c-14.4-17.8-32.8-28.8-53.2-28.8
			c-20.4,0-38.8,11-53.2,28.8c-14.4-17.8-32.8-28.8-53.2-28.8c-24.6,0-46.2,16-61.5,40.6c-15.3,24.6-24.7,58.4-24.7,95.6
			c0,37.1,9.3,70.9,24.7,95.6c15.3,24.6,36.9,40.6,61.5,40.6c20.4,0,38.8-11,53.2-28.8c14.4,17.8,32.8,28.8,53.2,28.8
			c20.4,0,38.8-11,53.2-28.8c14.4,17.8,32.8,28.8,53.2,28.8c24.6,0,46.2-16,61.5-40.6c15.3-24.6,24.7-58.4,24.7-95.6
			C1532.2,663,1522.8,629.2,1507.5,604.6z"/>
		<rect y="600" width="810" height="120"/>
		<rect x="2190" y="293" width="810" height="120"/>
	</g>
	<g>
		<path d="M1507.5,604.6c-15.3-24.6-36.9-40.6-61.5-40.6c-20.4,0-38.8,11-53.2,28.8c-14.4-17.8-32.8-28.8-53.2-28.8
			c-20.4,0-38.8,11-53.2,28.8c-14.4-17.8-32.8-28.8-53.2-28.8c-24.6,0-46.2,16-61.5,40.6c-15.3,24.6-24.7,58.4-24.7,95.6
			c0,37.1,9.3,70.9,24.7,95.6c15.3,24.6,36.9,40.6,61.5,40.6c20.4,0,38.8-11,53.2-28.8c14.4,17.8,32.8,28.8,53.2,28.8
			c20.4,0,38.8-11,53.2-28.8c14.4,17.8,32.8,28.8,53.2,28.8c24.6,0,46.2-16,61.5-40.6c15.3-24.6,24.7-58.4,24.7-95.6
			C1532.2,663,1522.8,629.2,1507.5,604.6z"/>
		<rect y="600" width="810" height="120"/>
		<rect x="2190" y="293" width="810" height="120"/>
	</g>
</g>
</svg>
